<svg id="Layer_1" data-name="Layer 1" xmlns="http://www.w3.org/2000/svg" viewBox="0 0 1000.24 1000.24">
  <title>icon-mask</title>
  <g>
    <path d="M953.15,288.69C836.45,38.42,539-69.86,288.69,46.85S-69.86,461,46.85,711.31,461,1069.86,711.31,953.15,1069.86,539,953.15,288.69ZM125,525H25V475H125ZM475,25h50V125H475ZM146.45,181.8l35.35-35.35,70.71,70.71-35.35,35.35ZM310,785H240V715h70Zm90,0H330V715h70Zm90,0H420V715h70ZM441.09,527.47a65,65,0,0,1,31.44-86.38c32.53-15.17,270.6-94.07,285.77-61.54S560,543.74,527.47,558.91A65,65,0,0,1,441.09,527.47ZM580,785H510V715h70Zm90,0H600V715h70Zm90,0H690V715h70Zm22.84-532.49-35.35-35.35,70.71-70.71,35.35,35.35ZM875,525V475H975v50Z" transform="translate(0.12 0.12)"/>
    <circle cx="500.12" cy="500.12" r="45"/>
  </g>
</svg>
